<?xml version="1.0" encoding="UTF-8" standalone="no"?>
<!DOCTYPE svg PUBLIC "-//W3C//DTD SVG 1.1//EN" "http://www.w3.org/Graphics/SVG/1.1/DTD/svg11.dtd">
<svg width="100%" height="100%" viewBox="0 0 400 800" version="1.1" xmlns="http://www.w3.org/2000/svg" xmlns:xlink="http://www.w3.org/1999/xlink" xml:space="preserve" xmlns:serif="http://www.serif.com/" style="fill-rule:evenodd;clip-rule:evenodd;stroke-linejoin:round;stroke-miterlimit:10;">
    <g>
        <g>
            <rect x="0" y="0" width="400" height="800" style="fill:white;"/>
        </g>
        <g>
            <rect x="0" y="0" width="400" height="800" style="fill:white;"/>
            <rect x="52" y="60" width="132" height="652" style="fill:white;fill-rule:nonzero;"/>
        </g>
        <g>
            <path d="M64,712L64,60" style="fill:none;fill-rule:nonzero;stroke:rgb(38,38,38);stroke-opacity:0.15;stroke-width:0.5px;"/>
            <path d="M76,712L76,60" style="fill:none;fill-rule:nonzero;stroke:rgb(38,38,38);stroke-opacity:0.15;stroke-width:0.5px;"/>
            <path d="M88,712L88,60" style="fill:none;fill-rule:nonzero;stroke:rgb(38,38,38);stroke-opacity:0.15;stroke-width:0.5px;"/>
            <path d="M100,712L100,60" style="fill:none;fill-rule:nonzero;stroke:rgb(38,38,38);stroke-opacity:0.15;stroke-width:0.5px;"/>
            <path d="M112,712L112,60" style="fill:none;fill-rule:nonzero;stroke:rgb(38,38,38);stroke-opacity:0.15;stroke-width:0.5px;"/>
            <path d="M124,712L124,60" style="fill:none;fill-rule:nonzero;stroke:rgb(38,38,38);stroke-opacity:0.15;stroke-width:0.5px;"/>
            <path d="M136,712L136,60" style="fill:none;fill-rule:nonzero;stroke:rgb(38,38,38);stroke-opacity:0.15;stroke-width:0.5px;"/>
            <path d="M148,712L148,60" style="fill:none;fill-rule:nonzero;stroke:rgb(38,38,38);stroke-opacity:0.15;stroke-width:0.5px;"/>
            <path d="M160,712L160,60" style="fill:none;fill-rule:nonzero;stroke:rgb(38,38,38);stroke-opacity:0.15;stroke-width:0.5px;"/>
            <path d="M172,712L172,60" style="fill:none;fill-rule:nonzero;stroke:rgb(38,38,38);stroke-opacity:0.15;stroke-width:0.5px;"/>
            <path d="M184,712L184,60" style="fill:none;fill-rule:nonzero;stroke:rgb(38,38,38);stroke-opacity:0.15;stroke-width:0.5px;"/>
            <path d="M52,712L184,712" style="fill:none;fill-rule:nonzero;stroke:rgb(38,38,38);stroke-width:0.5px;stroke-linecap:square;"/>
            <path d="M64,712L64,705.48" style="fill:none;fill-rule:nonzero;stroke:rgb(38,38,38);stroke-width:0.5px;stroke-linecap:square;"/>
            <path d="M76,712L76,705.48" style="fill:none;fill-rule:nonzero;stroke:rgb(38,38,38);stroke-width:0.5px;stroke-linecap:square;"/>
            <path d="M88,712L88,705.48" style="fill:none;fill-rule:nonzero;stroke:rgb(38,38,38);stroke-width:0.5px;stroke-linecap:square;"/>
            <path d="M100,712L100,705.48" style="fill:none;fill-rule:nonzero;stroke:rgb(38,38,38);stroke-width:0.5px;stroke-linecap:square;"/>
            <path d="M112,712L112,705.48" style="fill:none;fill-rule:nonzero;stroke:rgb(38,38,38);stroke-width:0.5px;stroke-linecap:square;"/>
            <path d="M124,712L124,705.48" style="fill:none;fill-rule:nonzero;stroke:rgb(38,38,38);stroke-width:0.5px;stroke-linecap:square;"/>
            <path d="M136,712L136,705.48" style="fill:none;fill-rule:nonzero;stroke:rgb(38,38,38);stroke-width:0.5px;stroke-linecap:square;"/>
            <path d="M148,712L148,705.48" style="fill:none;fill-rule:nonzero;stroke:rgb(38,38,38);stroke-width:0.5px;stroke-linecap:square;"/>
            <path d="M160,712L160,705.48" style="fill:none;fill-rule:nonzero;stroke:rgb(38,38,38);stroke-width:0.5px;stroke-linecap:square;"/>
            <path d="M172,712L172,705.48" style="fill:none;fill-rule:nonzero;stroke:rgb(38,38,38);stroke-width:0.5px;stroke-linecap:square;"/>
            <path d="M184,712L184,705.48" style="fill:none;fill-rule:nonzero;stroke:rgb(38,38,38);stroke-width:0.5px;stroke-linecap:square;"/>
        </g>
        <g transform="matrix(0.707107,-0.707107,0.707107,0.707107,58.3431,735.799)">
            <text x="0px" y="0px" style="font-family:'HelveticaNeue', 'Helvetica Neue';font-size:10px;fill:rgb(38,38,38);">clay</text>
        </g>
        <g transform="matrix(0.707107,-0.707107,0.707107,0.707107,73.8787,732.263)">
            <text x="0px" y="0px" style="font-family:'HelveticaNeue', 'Helvetica Neue';font-size:10px;fill:rgb(38,38,38);">silt</text>
        </g>
        <g transform="matrix(0.707107,-0.707107,0.707107,0.707107,85.8787,732.263)">
            <text x="0px" y="0px" style="font-family:'HelveticaNeue', 'Helvetica Neue';font-size:10px;fill:rgb(38,38,38);">vfs</text>
        </g>
        <g transform="matrix(0.707107,-0.707107,0.707107,0.707107,101.414,728.728)">
            <text x="0px" y="0px" style="font-family:'HelveticaNeue', 'Helvetica Neue';font-size:10px;fill:rgb(38,38,38);">fs</text>
        </g>
        <g transform="matrix(0.707107,-0.707107,0.707107,0.707107,109.172,732.971)">
            <text x="0px" y="0px" style="font-family:'HelveticaNeue', 'Helvetica Neue';font-size:10px;fill:rgb(38,38,38);">ms</text>
        </g>
        <g transform="matrix(0.707107,-0.707107,0.707107,0.707107,123.293,730.849)">
            <text x="0px" y="0px" style="font-family:'HelveticaNeue', 'Helvetica Neue';font-size:10px;fill:rgb(38,38,38);">cs</text>
        </g>
        <g transform="matrix(0.707107,-0.707107,0.707107,0.707107,131.757,734.385)">
            <text x="0px" y="0px" style="font-family:'HelveticaNeue', 'Helvetica Neue';font-size:10px;fill:rgb(38,38,38);">vcs</text>
        </g>
        <g transform="matrix(0.707107,-0.707107,0.707107,0.707107,148,730.142)">
            <text x="0px" y="0px" style="font-family:'HelveticaNeue', 'Helvetica Neue';font-size:10px;fill:rgb(38,38,38);">gr</text>
        </g>
        <g transform="matrix(0.707107,-0.707107,0.707107,0.707107,158.586,731.556)">
            <text x="0px" y="0px" style="font-family:'HelveticaNeue', 'Helvetica Neue';font-size:10px;fill:rgb(38,38,38);">pb</text>
        </g>
        <g transform="matrix(0.707107,-0.707107,0.707107,0.707107,169.172,732.971)">
            <text x="0px" y="0px" style="font-family:'HelveticaNeue', 'Helvetica Neue';font-size:10px;fill:rgb(38,38,38);">cbl</text>
        </g>
        <g transform="matrix(0.707107,-0.707107,0.707107,0.707107,178.343,735.799)">
            <text x="0px" y="0px" style="font-family:'HelveticaNeue', 'Helvetica Neue';font-size:10px;fill:rgb(38,38,38);">bldr</text>
        </g>
        <g transform="matrix(1,0,0,1,92.5001,749.567)">
            <text x="0px" y="0px" style="font-family:'HelveticaNeue', 'Helvetica Neue';font-size:11px;fill:rgb(38,38,38);">Grain Size</text>
        </g>
        <g>
            <path d="M52,712L52,60" style="fill:none;fill-rule:nonzero;stroke:rgb(38,38,38);stroke-width:0.5px;stroke-linecap:square;"/>
            <path d="M52,712L58.52,712" style="fill:none;fill-rule:nonzero;stroke:rgb(38,38,38);stroke-width:0.5px;stroke-linecap:square;"/>
            <path d="M52,618.857L58.52,618.857" style="fill:none;fill-rule:nonzero;stroke:rgb(38,38,38);stroke-width:0.5px;stroke-linecap:square;"/>
            <path d="M52,525.714L58.52,525.714" style="fill:none;fill-rule:nonzero;stroke:rgb(38,38,38);stroke-width:0.5px;stroke-linecap:square;"/>
            <path d="M52,432.571L58.52,432.571" style="fill:none;fill-rule:nonzero;stroke:rgb(38,38,38);stroke-width:0.5px;stroke-linecap:square;"/>
            <path d="M52,339.429L58.52,339.429" style="fill:none;fill-rule:nonzero;stroke:rgb(38,38,38);stroke-width:0.5px;stroke-linecap:square;"/>
            <path d="M52,246.286L58.52,246.286" style="fill:none;fill-rule:nonzero;stroke:rgb(38,38,38);stroke-width:0.5px;stroke-linecap:square;"/>
            <path d="M52,153.143L58.52,153.143" style="fill:none;fill-rule:nonzero;stroke:rgb(38,38,38);stroke-width:0.5px;stroke-linecap:square;"/>
            <path d="M52,60L58.52,60" style="fill:none;fill-rule:nonzero;stroke:rgb(38,38,38);stroke-width:0.5px;stroke-linecap:square;"/>
        </g>
        <g transform="matrix(1,0,0,1,42,715.5)">
            <text x="0px" y="0px" style="font-family:'HelveticaNeue', 'Helvetica Neue';font-size:10px;fill:rgb(38,38,38);">0</text>
        </g>
        <g transform="matrix(1,0,0,1,36,622.357)">
            <text x="0px" y="0px" style="font-family:'HelveticaNeue', 'Helvetica Neue';font-size:10px;fill:rgb(38,38,38);">10</text>
        </g>
        <g transform="matrix(1,0,0,1,36,529.214)">
            <text x="0px" y="0px" style="font-family:'HelveticaNeue', 'Helvetica Neue';font-size:10px;fill:rgb(38,38,38);">20</text>
        </g>
        <g transform="matrix(1,0,0,1,36,436.071)">
            <text x="0px" y="0px" style="font-family:'HelveticaNeue', 'Helvetica Neue';font-size:10px;fill:rgb(38,38,38);">30</text>
        </g>
        <g transform="matrix(1,0,0,1,36,342.929)">
            <text x="0px" y="0px" style="font-family:'HelveticaNeue', 'Helvetica Neue';font-size:10px;fill:rgb(38,38,38);">40</text>
        </g>
        <g transform="matrix(1,0,0,1,36,249.786)">
            <text x="0px" y="0px" style="font-family:'HelveticaNeue', 'Helvetica Neue';font-size:10px;fill:rgb(38,38,38);">50</text>
        </g>
        <g transform="matrix(1,0,0,1,36,156.643)">
            <text x="0px" y="0px" style="font-family:'HelveticaNeue', 'Helvetica Neue';font-size:10px;fill:rgb(38,38,38);">60</text>
        </g>
        <g transform="matrix(1,0,0,1,36,63.5)">
            <text x="0px" y="0px" style="font-family:'HelveticaNeue', 'Helvetica Neue';font-size:10px;fill:rgb(38,38,38);">70</text>
        </g>
        <g transform="matrix(-3.82857e-16,-1,1,-3.82857e-16,30.5,407)">
            <text x="0px" y="0px" style="font-family:'HelveticaNeue', 'Helvetica Neue';font-size:11px;fill:rgb(38,38,38);">Strat (m)</text>
        </g>
        <g transform="matrix(1,0,0,1,66.5001,55.625)">
            <text x="0px" y="0px" style="font-family:'HelveticaNeue-Bold', 'Helvetica Neue';font-weight:700;font-size:11px;">Sierra del T<tspan x="58.652px 65.373px 69.454px 76.175px " y="0px 0px 0px 0px ">oro </tspan>ssm</text>
        </g>
        <g>
            <rect x="52" y="97.304" width="24" height="21.434" style="fill:rgb(172,128,80);fill-rule:nonzero;"/>
        </g>
        <g>
            <path d="M52,97.304L76,97.304L76,118.738L52,118.738L52,97.304" style="fill:none;stroke:black;stroke-width:0.5px;stroke-linecap:square;stroke-linejoin:miter;"/>
        </g>
        <g>
            <rect x="52" y="118.738" width="39.536" height="1.253" style="fill:rgb(254,253,122);fill-rule:nonzero;"/>
        </g>
        <g>
            <path d="M52,118.738L91.536,118.738L91.536,119.99L52,119.99L52,118.738" style="fill:none;stroke:black;stroke-width:0.5px;stroke-linecap:square;stroke-linejoin:miter;"/>
        </g>
        <g>
            <rect x="52" y="119.99" width="24" height="23.591" style="fill:rgb(172,128,80);fill-rule:nonzero;"/>
        </g>
        <g>
            <path d="M52,119.99L76,119.99L76,143.581L52,143.581L52,119.99" style="fill:none;stroke:black;stroke-width:0.5px;stroke-linecap:square;stroke-linejoin:miter;"/>
        </g>
        <g>
            <path d="M105.237,143.581L52,143.581L52,149.636L118.314,149.636L118.314,149.079L116.757,148.313L112.71,146.504L108.662,144.695L105.237,143.581Z" style="fill:rgb(254,253,122);fill-rule:nonzero;"/>
        </g>
        <g>
            <path d="M52,143.581L105.237,143.581L108.662,144.695L112.71,146.504L116.757,148.313L118.314,149.079L118.314,149.636L52,149.636L52,143.581" style="fill:none;stroke:black;stroke-width:0.5px;stroke-linecap:square;stroke-linejoin:miter;"/>
        </g>
        <g>
            <rect x="52" y="149.636" width="24.279" height="15.858" style="fill:rgb(172,128,80);fill-rule:nonzero;"/>
        </g>
        <g>
            <path d="M52,149.636L76.279,149.636L76.279,165.493L52,165.493L52,149.636" style="fill:none;stroke:black;stroke-width:0.5px;stroke-linecap:square;stroke-linejoin:miter;"/>
        </g>
        <g>
            <rect x="52" y="165.493" width="40.143" height="1.066" style="fill:rgb(254,253,122);fill-rule:nonzero;"/>
        </g>
        <g>
            <path d="M52,165.493L92.143,165.493L92.143,166.559L52,166.559L52,165.493" style="fill:none;stroke:black;stroke-width:0.5px;stroke-linecap:square;stroke-linejoin:miter;"/>
        </g>
        <g>
            <rect x="52" y="166.559" width="24.022" height="21.16" style="fill:rgb(172,128,80);fill-rule:nonzero;"/>
        </g>
        <g>
            <path d="M52,166.559L76.022,166.559L76.022,187.719L52,187.719L52,166.559" style="fill:none;stroke:black;stroke-width:0.5px;stroke-linecap:square;stroke-linejoin:miter;"/>
        </g>
        <g>
            <rect x="52" y="187.719" width="60.576" height="6.85" style="fill:rgb(254,253,122);fill-rule:nonzero;"/>
        </g>
        <g>
            <path d="M52,187.719L112.577,187.719L112.577,194.569L52,194.569L52,187.719" style="fill:none;stroke:black;stroke-width:0.5px;stroke-linecap:square;stroke-linejoin:miter;"/>
        </g>
        <g>
            <path d="M52,194.569L52,198.306L108.265,198.306L108.265,197.899L104.008,196.132L99.751,194.569L52,194.569Z" style="fill:rgb(254,253,122);fill-rule:nonzero;"/>
        </g>
        <g>
            <path d="M52,194.569L99.751,194.569L104.008,196.132L108.265,197.899L108.265,198.306L52,198.306L52,194.569" style="fill:none;stroke:black;stroke-width:0.5px;stroke-linecap:square;stroke-linejoin:miter;"/>
        </g>
        <g>
            <rect x="52" y="198.306" width="24.033" height="8.495" style="fill:rgb(172,128,80);fill-rule:nonzero;"/>
        </g>
        <g>
            <path d="M52,198.306L76.033,198.306L76.033,206.801L52,206.801L52,198.306" style="fill:none;stroke:black;stroke-width:0.5px;stroke-linecap:square;stroke-linejoin:miter;"/>
        </g>
        <g>
            <path d="M52,206.801L52,214.345L114.65,214.345L114.65,213.869L109.177,211.423L102.487,208.296L99.142,206.801L52,206.801Z" style="fill:rgb(254,253,122);fill-rule:nonzero;"/>
        </g>
        <g>
            <path d="M52,206.801L99.142,206.801L102.487,208.296L109.177,211.423L114.65,213.869L114.65,214.345L52,214.345L52,206.801" style="fill:none;stroke:black;stroke-width:0.5px;stroke-linecap:square;stroke-linejoin:miter;"/>
        </g>
        <g>
            <rect x="52" y="214.345" width="24.033" height="23.847" style="fill:rgb(172,128,80);fill-rule:nonzero;"/>
        </g>
        <g>
            <path d="M52,214.345L76.033,214.345L76.033,238.191L52,238.191L52,214.345" style="fill:none;stroke:black;stroke-width:0.5px;stroke-linecap:square;stroke-linejoin:miter;"/>
        </g>
        <g>
            <rect x="52" y="238.191" width="39.971" height="0.808" style="fill:rgb(254,253,122);fill-rule:nonzero;"/>
        </g>
        <g>
            <path d="M52,238.191L91.971,238.191L91.971,238.999L52,238.999L52,238.191" style="fill:none;stroke:black;stroke-width:0.5px;stroke-linecap:square;stroke-linejoin:miter;"/>
        </g>
        <g>
            <rect x="52" y="238.999" width="24" height="6.06" style="fill:rgb(172,128,80);fill-rule:nonzero;"/>
        </g>
        <g>
            <path d="M52,238.999L76,238.999L76,245.059L52,245.059L52,238.999" style="fill:none;stroke:black;stroke-width:0.5px;stroke-linecap:square;stroke-linejoin:miter;"/>
        </g>
        <g>
            <rect x="52" y="245.059" width="42.532" height="4.646" style="fill:rgb(254,253,122);fill-rule:nonzero;"/>
        </g>
        <g>
            <path d="M52,245.059L94.532,245.059L94.532,249.705L52,249.705L52,245.059" style="fill:none;stroke:black;stroke-width:0.5px;stroke-linecap:square;stroke-linejoin:miter;"/>
        </g>
        <g>
            <rect x="52" y="249.705" width="24" height="13.298" style="fill:rgb(172,128,80);fill-rule:nonzero;"/>
        </g>
        <g>
            <path d="M52,249.705L76,249.705L76,263.003L52,263.003L52,249.705" style="fill:none;stroke:black;stroke-width:0.5px;stroke-linecap:square;stroke-linejoin:miter;"/>
        </g>
        <g>
            <rect x="52" y="263.003" width="42.683" height="3.402" style="fill:rgb(254,253,122);fill-rule:nonzero;"/>
        </g>
        <g>
            <path d="M52,263.003L94.683,263.003L94.683,266.405L52,266.405L52,263.003" style="fill:none;stroke:black;stroke-width:0.5px;stroke-linecap:square;stroke-linejoin:miter;"/>
        </g>
        <g>
            <rect x="52" y="266.405" width="24" height="15.34" style="fill:rgb(172,128,80);fill-rule:nonzero;"/>
        </g>
        <g>
            <path d="M52,266.405L76,266.405L76,281.745L52,281.745L52,266.405" style="fill:none;stroke:black;stroke-width:0.5px;stroke-linecap:square;stroke-linejoin:miter;"/>
        </g>
        <g>
            <rect x="52" y="281.745" width="43.362" height="3.377" style="fill:rgb(254,253,122);fill-rule:nonzero;"/>
        </g>
        <g>
            <path d="M52,281.745L95.362,281.745L95.362,285.122L52,285.122L52,281.745" style="fill:none;stroke:black;stroke-width:0.5px;stroke-linecap:square;stroke-linejoin:miter;"/>
        </g>
        <g>
            <rect x="52" y="285.122" width="24" height="8.7" style="fill:rgb(172,128,80);fill-rule:nonzero;"/>
        </g>
        <g>
            <path d="M52,285.122L76,285.122L76,293.822L52,293.822L52,285.122" style="fill:none;stroke:black;stroke-width:0.5px;stroke-linecap:square;stroke-linejoin:miter;"/>
        </g>
        <g>
            <path d="M52,293.822L52,301.972L110.342,301.972L110.342,301.723L110.513,301.417L109.828,300.594L108.715,299.274L107.774,297.878L106.319,296.022L105.463,294.664L105.12,294.396L104.264,294.109L102.467,293.822L52,293.822Z" style="fill:rgb(254,253,122);fill-rule:nonzero;"/>
        </g>
        <g>
            <path d="M52,293.822L102.467,293.822L104.264,294.109L105.12,294.396L105.463,294.664L106.319,296.022L107.774,297.878L108.715,299.274L109.828,300.594L110.513,301.417L110.342,301.723L110.342,301.972L52,301.972L52,293.822" style="fill:none;stroke:black;stroke-width:0.5px;stroke-linecap:square;stroke-linejoin:miter;"/>
        </g>
        <g>
            <rect x="52" y="301.972" width="24" height="1.913" style="fill:rgb(172,128,80);fill-rule:nonzero;"/>
        </g>
        <g>
            <path d="M52,301.972L76,301.972L76,303.885L52,303.885L52,301.972" style="fill:none;stroke:black;stroke-width:0.5px;stroke-linecap:square;stroke-linejoin:miter;"/>
        </g>
        <g>
            <rect x="52" y="303.885" width="39.424" height="1.071" style="fill:rgb(254,253,122);fill-rule:nonzero;"/>
        </g>
        <g>
            <path d="M52,303.885L91.424,303.885L91.424,304.956L52,304.956L52,303.885" style="fill:none;stroke:black;stroke-width:0.5px;stroke-linecap:square;stroke-linejoin:miter;"/>
        </g>
        <g>
            <rect x="52" y="304.956" width="24" height="5.869" style="fill:rgb(172,128,80);fill-rule:nonzero;"/>
        </g>
        <g>
            <path d="M52,304.956L76,304.956L76,310.825L52,310.825L52,304.956" style="fill:none;stroke:black;stroke-width:0.5px;stroke-linecap:square;stroke-linejoin:miter;"/>
        </g>
        <g>
            <path d="M52,310.825L52,320.565L115.59,320.565L115.59,320.007L114.455,319.144L111.504,316.709L107.873,313.717L104.015,311.231L102.199,310.825L52,310.825Z" style="fill:rgb(254,253,122);fill-rule:nonzero;"/>
        </g>
        <g>
            <path d="M52,310.825L102.199,310.825L104.015,311.231L107.873,313.717L111.504,316.709L114.455,319.144L115.59,320.007L115.59,320.565L52,320.565L52,310.825" style="fill:none;stroke:black;stroke-width:0.5px;stroke-linecap:square;stroke-linejoin:miter;"/>
        </g>
        <g>
            <rect x="52" y="320.565" width="24" height="7.863" style="fill:rgb(172,128,80);fill-rule:nonzero;"/>
        </g>
        <g>
            <path d="M52,320.565L76,320.565L76,328.427L52,328.427L52,320.565" style="fill:none;stroke:black;stroke-width:0.5px;stroke-linecap:square;stroke-linejoin:miter;"/>
        </g>
        <g>
            <rect x="52" y="328.427" width="39.531" height="1.014" style="fill:rgb(254,253,122);fill-rule:nonzero;"/>
        </g>
        <g>
            <path d="M52,328.427L91.531,328.427L91.531,329.442L52,329.442L52,328.427" style="fill:none;stroke:black;stroke-width:0.5px;stroke-linecap:square;stroke-linejoin:miter;"/>
        </g>
        <g>
            <rect x="52" y="329.442" width="24" height="8.471" style="fill:rgb(172,128,80);fill-rule:nonzero;"/>
        </g>
        <g>
            <path d="M52,329.442L76,329.442L76,337.913L52,337.913L52,329.442" style="fill:none;stroke:black;stroke-width:0.5px;stroke-linecap:square;stroke-linejoin:miter;"/>
        </g>
        <g>
            <rect x="52" y="337.913" width="42.255" height="3.044" style="fill:rgb(254,253,122);fill-rule:nonzero;"/>
        </g>
        <g>
            <path d="M52,337.913L94.255,337.913L94.255,340.956L52,340.956L52,337.913" style="fill:none;stroke:black;stroke-width:0.5px;stroke-linecap:square;stroke-linejoin:miter;"/>
        </g>
        <g>
            <rect x="52" y="340.956" width="24" height="25.943" style="fill:rgb(172,128,80);fill-rule:nonzero;"/>
        </g>
        <g>
            <path d="M52,340.956L76,340.956L76,366.9L52,366.9L52,340.956" style="fill:none;stroke:black;stroke-width:0.5px;stroke-linecap:square;stroke-linejoin:miter;"/>
        </g>
        <g>
            <rect x="52" y="366.9" width="39.961" height="1.306" style="fill:rgb(254,253,122);fill-rule:nonzero;"/>
        </g>
        <g>
            <path d="M52,366.9L91.961,366.9L91.961,368.205L52,368.205L52,366.9" style="fill:none;stroke:black;stroke-width:0.5px;stroke-linecap:square;stroke-linejoin:miter;"/>
        </g>
        <g>
            <rect x="52" y="368.205" width="24" height="7.851" style="fill:rgb(172,128,80);fill-rule:nonzero;"/>
        </g>
        <g>
            <path d="M52,368.205L76,368.205L76,376.056L52,376.056L52,368.205" style="fill:none;stroke:black;stroke-width:0.5px;stroke-linecap:square;stroke-linejoin:miter;"/>
        </g>
        <g>
            <rect x="52" y="376.056" width="39.816" height="1.016" style="fill:rgb(254,253,122);fill-rule:nonzero;"/>
        </g>
        <g>
            <path d="M52,376.056L91.816,376.056L91.816,377.072L52,377.072L52,376.056" style="fill:none;stroke:black;stroke-width:0.5px;stroke-linecap:square;stroke-linejoin:miter;"/>
        </g>
        <g>
            <rect x="52" y="377.072" width="24" height="7.141" style="fill:rgb(172,128,80);fill-rule:nonzero;"/>
        </g>
        <g>
            <path d="M52,377.072L76,377.072L76,384.212L52,384.212L52,377.072" style="fill:none;stroke:black;stroke-width:0.5px;stroke-linecap:square;stroke-linejoin:miter;"/>
        </g>
        <g>
            <rect x="52" y="384.212" width="43.072" height="3.433" style="fill:rgb(254,253,122);fill-rule:nonzero;"/>
        </g>
        <g>
            <path d="M52,384.212L95.072,384.212L95.072,387.645L52,387.645L52,384.212" style="fill:none;stroke:black;stroke-width:0.5px;stroke-linecap:square;stroke-linejoin:miter;"/>
        </g>
        <g>
            <rect x="52" y="387.645" width="24" height="4.851" style="fill:rgb(172,128,80);fill-rule:nonzero;"/>
        </g>
        <g>
            <path d="M52,387.645L76,387.645L76,392.496L52,392.496L52,387.645" style="fill:none;stroke:black;stroke-width:0.5px;stroke-linecap:square;stroke-linejoin:miter;"/>
        </g>
        <g>
            <rect x="52" y="392.496" width="46.579" height="1.866" style="fill:rgb(254,253,122);fill-rule:nonzero;"/>
        </g>
        <g>
            <path d="M52,392.496L98.579,392.496L98.579,394.362L52,394.362L52,392.496" style="fill:none;stroke:black;stroke-width:0.5px;stroke-linecap:square;stroke-linejoin:miter;"/>
        </g>
        <g>
            <rect x="52" y="394.362" width="24" height="1.455" style="fill:rgb(172,128,80);fill-rule:nonzero;"/>
        </g>
        <g>
            <path d="M52,394.362L76,394.362L76,395.817L52,395.817L52,394.362" style="fill:none;stroke:black;stroke-width:0.5px;stroke-linecap:square;stroke-linejoin:miter;"/>
        </g>
        <g>
            <path d="M52,395.817L52,399.923L103.087,399.923L103.087,399.437L102.085,398.728L100.081,397.273L98.579,396.079L96.408,395.817L52,395.817Z" style="fill:rgb(254,253,122);fill-rule:nonzero;"/>
        </g>
        <g>
            <path d="M52,395.817L96.408,395.817L98.579,396.079L100.081,397.273L102.085,398.728L103.087,399.437L103.087,399.923L52,399.923L52,395.817" style="fill:none;stroke:black;stroke-width:0.5px;stroke-linecap:square;stroke-linejoin:miter;"/>
        </g>
        <g>
            <rect x="52" y="410.347" width="47.243" height="5.923" style="fill:rgb(254,253,122);fill-rule:nonzero;"/>
        </g>
        <g>
            <path d="M52,410.347L99.243,410.347L99.243,416.271L52,416.271L52,410.347" style="fill:none;stroke:black;stroke-width:0.5px;stroke-linecap:square;stroke-linejoin:miter;"/>
        </g>
        <g>
            <rect x="52" y="416.271" width="24" height="1.599" style="fill:rgb(172,128,80);fill-rule:nonzero;"/>
        </g>
        <g>
            <path d="M52,416.271L76,416.271L76,417.87L52,417.87L52,416.271" style="fill:none;stroke:black;stroke-width:0.5px;stroke-linecap:square;stroke-linejoin:miter;"/>
        </g>
        <g>
            <path d="M103.483,417.87L52,417.87L52,427.702L109.579,427.702L109.579,426.695L108.783,425.451L107.988,423.201L106.928,420.95L105.868,419.291L105.603,418.284L103.483,417.87Z" style="fill:rgb(254,253,122);fill-rule:nonzero;"/>
        </g>
        <g>
            <path d="M52,417.87L103.483,417.87L105.603,418.284L105.868,419.291L106.928,420.95L107.988,423.201L108.783,425.451L109.579,426.695L109.579,427.702L52,427.702L52,417.87" style="fill:none;stroke:black;stroke-width:0.5px;stroke-linecap:square;stroke-linejoin:miter;"/>
        </g>
        <g>
            <path d="M148.477,439.746L52,439.746L52,505.317L176.804,505.317L176.804,504.826L182.091,503.729L183.98,502.378L181.714,500.943L176.804,499.255L173.404,497.82L173.027,496.723L173.404,493.769L173.027,490.477L172.649,487.016L172.271,484.906L171.894,482.036L171.138,478.744L170.761,476.549L169.25,473.763L168.494,471.569L167.361,470.049L165.095,467.939L158.297,461.946L152.632,453.927L151.121,449.369L149.988,443.123L148.477,439.746Z" style="fill:rgb(254,253,122);fill-rule:nonzero;"/>
        </g>
        <g>
            <path d="M52,439.746L148.477,439.746L149.988,443.123L151.121,449.369L152.632,453.927L158.297,461.946L165.095,467.939L167.361,470.049L168.494,471.569L169.25,473.763L170.761,476.549L171.138,478.744L171.894,482.036L172.271,484.906L172.649,487.016L173.027,490.477L173.404,493.769L173.027,496.723L173.404,497.82L176.804,499.255L181.714,500.943L183.98,502.378L182.091,503.729L176.804,504.826L176.804,505.317L52,505.317L52,439.746" style="fill:none;stroke:black;stroke-width:0.5px;stroke-linecap:square;stroke-linejoin:miter;"/>
        </g>
        <g>
            <rect x="52" y="505.317" width="24" height="1.364" style="fill:rgb(172,128,80);fill-rule:nonzero;"/>
        </g>
        <g>
            <path d="M52,505.317L76,505.317L76,506.681L52,506.681L52,505.317" style="fill:none;stroke:black;stroke-width:0.5px;stroke-linecap:square;stroke-linejoin:miter;"/>
        </g>
        <g>
            <rect x="52" y="506.681" width="53.89" height="5.811" style="fill:rgb(254,253,122);fill-rule:nonzero;"/>
        </g>
        <g>
            <path d="M52,506.681L105.89,506.681L105.89,512.492L52,512.492L52,506.681" style="fill:none;stroke:black;stroke-width:0.5px;stroke-linecap:square;stroke-linejoin:miter;"/>
        </g>
        <g>
            <path d="M98.192,512.492L52,512.492L52,521.123L108.143,521.123L108.143,520.695L108.33,520.401L108.049,519.961L105.984,518.45L103.074,516.1L99.976,513.604L98.192,512.492Z" style="fill:rgb(254,253,122);fill-rule:nonzero;"/>
        </g>
        <g>
            <path d="M52,512.492L98.192,512.492L99.976,513.604L103.074,516.1L105.984,518.45L108.049,519.961L108.33,520.401L108.143,520.695L108.143,521.123L52,521.123L52,512.492" style="fill:none;stroke:black;stroke-width:0.5px;stroke-linecap:square;stroke-linejoin:miter;"/>
        </g>
        <g>
            <path d="M103.177,530.697L102.533,528.61L102.05,526.63L101.567,523.967L100.761,522.059L99.795,521.123L52,521.123L52,546.847L116.383,546.847L116.383,546.354L118.477,546.031L118.155,545.67L114.29,545.095L111.713,543.403L109.136,540.703L106.559,537.356L104.788,534.333L103.177,530.697Z" style="fill:rgb(254,253,122);fill-rule:nonzero;"/>
        </g>
        <g>
            <path d="M52,521.123L99.795,521.123L100.761,522.059L101.567,523.967L102.05,526.63L102.533,528.61L103.177,530.697L104.788,534.333L106.559,537.356L109.136,540.703L111.713,543.403L114.29,545.095L118.155,545.67L118.477,546.031L116.383,546.354L116.383,546.847L52,546.847L52,521.123" style="fill:none;stroke:black;stroke-width:0.5px;stroke-linecap:square;stroke-linejoin:miter;"/>
        </g>
        <g>
            <path d="M114.242,546.847L52,546.847L52,562.549L122.761,562.549L122.761,561.849L121.909,561.468L118.331,561.05L117.309,559.831L116.968,558.118L116.628,555.338L116.628,551.987L116.117,549.131L115.435,547.494L114.242,546.847Z" style="fill:rgb(254,253,122);fill-rule:nonzero;"/>
        </g>
        <g>
            <path d="M52,546.847L114.242,546.847L115.435,547.494L116.117,549.131L116.628,551.987L116.628,555.338L116.968,558.118L117.309,559.831L118.331,561.05L121.909,561.468L122.761,561.849L122.761,562.549L52,562.549L52,546.847" style="fill:none;stroke:black;stroke-width:0.5px;stroke-linecap:square;stroke-linejoin:miter;"/>
        </g>
        <g>
            <path d="M52,562.549L52,573.821L111.656,573.821L111.656,573.14L110.64,571.854L109.286,570.114L109.286,566.483L108.948,562.549L52,562.549Z" style="fill:rgb(254,253,122);fill-rule:nonzero;"/>
        </g>
        <g>
            <path d="M52,562.549L108.948,562.549L109.286,566.483L109.286,570.114L110.64,571.854L111.656,573.14L111.656,573.821L52,573.821L52,562.549" style="fill:none;stroke:black;stroke-width:0.5px;stroke-linecap:square;stroke-linejoin:miter;"/>
        </g>
        <g>
            <path d="M52,573.821L52,598.313L130.019,598.313L130.019,597.84L128.327,597.5L122.403,597.159L120.203,596.252L118.849,593.679L116.649,590.199L112.079,587.211L106.155,583.24L102.77,579.646L99.893,576.242L98.2,573.821L52,573.821Z" style="fill:rgb(254,253,122);fill-rule:nonzero;"/>
        </g>
        <g>
            <path d="M52,573.821L98.2,573.821L99.893,576.242L102.77,579.646L106.155,583.24L112.079,587.211L116.649,590.199L118.849,593.679L120.203,596.252L122.403,597.159L128.327,597.5L130.019,597.84L130.019,598.313L52,598.313L52,573.821" style="fill:none;stroke:black;stroke-width:0.5px;stroke-linecap:square;stroke-linejoin:miter;"/>
        </g>
        <g>
            <path d="M52,598.313L52,656.263L184,656.263L184,653.822L183.955,649.741L183.291,645.065L182.294,637.644L181.63,631.262L180.634,628.888L175.986,623.693L171.337,619.834L168.348,617.459L165.36,613.675L162.704,609.519L157.723,604.176L152.078,598.907L149.09,598.313L52,598.313Z" style="fill:rgb(254,253,122);fill-rule:nonzero;"/>
        </g>
        <g>
            <path d="M52,598.313L149.09,598.313L152.078,598.907L157.723,604.176L162.704,609.519L165.36,613.675L168.348,617.459L171.337,619.834L175.986,623.693L180.634,628.888L181.63,631.262L182.294,637.644L183.291,645.065L183.955,649.741L184,653.822L184,656.263L52,656.263L52,598.313" style="fill:none;stroke:black;stroke-width:0.5px;stroke-linecap:square;stroke-linejoin:miter;"/>
        </g>
        <g>
            <path d="M104.212,656.263L52,656.263L52,711.703L166.817,711.703L166.817,710.709L166.15,708.997L165.151,705.869L147.325,705.311L123.835,704.492L122.169,700.061L120.17,694.215L117.121,686.377L115.239,681.809L112.28,674.236L109.322,666.842L106.094,659.509L104.212,656.263Z" style="fill:rgb(254,253,122);fill-rule:nonzero;"/>
        </g>
        <g>
            <path d="M52,656.263L104.212,656.263L106.094,659.509L109.322,666.842L112.28,674.236L115.239,681.809L117.121,686.377L120.17,694.215L122.169,700.061L123.835,704.492L147.325,705.311L165.151,705.869L166.15,708.997L166.817,710.709L166.817,711.703L52,711.703L52,656.263" style="fill:none;stroke:black;stroke-width:0.5px;stroke-linecap:square;stroke-linejoin:miter;"/>
        </g>
    </g>
</svg>
